<svg id="SvgjsSvg1022" width="256" height="256" xmlns="http://www.w3.org/2000/svg" version="1.1" xmlns:xlink="http://www.w3.org/1999/xlink" xmlns:svgjs="http://svgjs.com/svgjs"><defs id="SvgjsDefs1023"></defs><g id="SvgjsG1024"><svg xmlns="http://www.w3.org/2000/svg" viewBox="0 0 64 64" width="256" height="256"><circle cx="32" cy="32" r="29" fill="#dd1c4b" class="colordd1c4b svgShape"></circle><path fill="#b21d48" d="M60.662 27.562c.023.477.036.956.036 1.438a29 29 0 0 1-57.662 4.438 29 29 0 1 0 57.626-5.876z" class="colorb21d48 svgShape"></path><path fill="#f6f6e7" d="m41.959 31.985 17.277-9.967a28.955 28.955 0 0 0-4.97-8.594L37 23.385V3.438a28.758 28.758 0 0 0-10 0v19.893L9.781 13.37a28.968 28.968 0 0 0-5.018 8.65l17.278 10-17.277 9.962a28.955 28.955 0 0 0 4.97 8.594L27 40.615v19.947a28.758 28.758 0 0 0 10 0V40.669l17.219 9.961a28.968 28.968 0 0 0 5.018-8.65z" class="colorf6f6e7 svgShape"></path><circle cx="20" cy="53" r="2" fill="#f6f6e7" class="colorf6f6e7 svgShape"></circle><circle cx="44" cy="53" r="2" fill="#f6f6e7" class="colorf6f6e7 svgShape"></circle><circle cx="56" cy="32" r="2" fill="#f6f6e7" class="colorf6f6e7 svgShape"></circle><circle cx="44" cy="11" r="2" fill="#f6f6e7" class="colorf6f6e7 svgShape"></circle><circle cx="20" cy="11" r="2" fill="#f6f6e7" class="colorf6f6e7 svgShape"></circle><circle cx="8" cy="32" r="2" fill="#f6f6e7" class="colorf6f6e7 svgShape"></circle><path fill="#dd1c4b" d="M45.435 18.565a19 19 0 1 0 0 26.87 19 19 0 0 0 0-26.87zM39 44.124A14 14 0 1 1 44.124 25 14 14 0 0 1 39 44.124z" class="colordd1c4b svgShape"></path><path fill="#f6f6e7" d="M43.314 20.686a16 16 0 1 0 0 22.628 16 16 0 0 0 0-22.628zM37.9 42.21a11.79 11.79 0 1 1 4.315-16.1 11.789 11.789 0 0 1-4.315 16.1z" class="colorf6f6e7 svgShape"></path><circle cx="32" cy="32" r="14" fill="#dd1c4b" class="colordd1c4b svgShape"></circle></svg></g></svg>